Coordinates
version=1
nRows=16
nColumns=21
inDegrees=yes

Units are S.I. units (second, meters, Newtons, ...)
If the header above contains a line with 'inDegrees', this indicates whether rotational values are in degrees (yes) or radians (no).

endheader
time	sternoclavicular_r2	sternoclavicular_r3	unrotscap_r3	unrotscap_r2	acromioclavicular_r2	acromioclavicular_r3	acromioclavicular_r1	unrothum_r1	unrothum_r3	unrothum_r2	elv_angle	shoulder_elev	shoulder1_r2	shoulder_rot	elbow_flexion	pro_sup	deviation	flexion	wrist_hand_r1	wrist_hand_r3
      3.01507538	    -17.71030725	      7.50125027	     -7.50125027	     17.71030725	     -3.58597696	     28.98060443	     13.02658224	    -13.02658224	    -28.98060443	      3.58597696	    129.99904027	     73.18292380	   -129.99904027	     19.91984204	      0.00489334	      0.00000000	      0.00000000	     -0.00000000	     -0.00000000	      0.00000000
      3.03517588	    -17.76039623	      7.52246560	     -7.52246560	     17.76039623	     -3.59611896	     29.06256849	     13.06342452	    -13.06342452	    -29.06256849	      3.59611896	    129.99904974	     73.38990256	   -129.99904974	     19.92043311	      0.00484980	      0.00000000	      0.00000000	     -0.00000000	     -0.00000000	      0.00000000
      3.05527638	    -17.80915198	      7.54311623	     -7.54311623	     17.80915198	     -3.60599101	     29.14235091	     13.09928617	    -13.09928617	    -29.14235091	      3.60599101	    129.99905879	     73.59137216	   -129.99905879	     19.92098733	      0.00480817	      0.00000000	      0.00000000	     -0.00000000	     -0.00000000	      0.00000000
      3.07537688	    -17.85658815	      7.56320795	     -7.56320795	     17.85658815	     -3.61559587	     29.21997400	     13.13417722	    -13.13417722	    -29.21997400	      3.61559587	    129.99906745	     73.78738894	   -129.99906745	     19.92121727	      0.00476824	      0.00000000	      0.00000000	     -0.00000000	     -0.00000000	      0.00000000
      3.09547739	    -17.90287766	      7.58281401	     -7.58281401	     17.90287766	     -3.62496855	     29.29572075	     13.16822486	    -13.16822486	    -29.29572075	      3.62496855	    129.99907571	     73.97866750	   -129.99907571	     19.92221690	      0.00472902	      0.00000000	      0.00000000	     -0.00000000	     -0.00000000	      0.00000000
      3.11557789	    -17.94770893	      7.60180242	     -7.60180242	     17.94770893	     -3.63404597	     29.36908126	     13.20119990	    -13.20119990	    -29.36908126	      3.63404597	    129.99908367	     74.16392025	   -129.99908367	     19.91862947	      0.00468942	      0.00000000	      0.00000000	     -0.00000000	     -0.00000000	      0.00000000
      3.13567839	    -17.99084025	      7.62007081	     -7.62007081	     17.99084025	     -3.64277919	     29.43966003	     13.23292457	    -13.23292457	    -29.43966003	      3.64277919	    129.99909116	     74.34214844	   -129.99909116	     19.91971927	      0.00465531	      0.00000000	      0.00000000	     -0.00000000	     -0.00000000	      0.00000000
      3.15577889	    -18.03280957	      7.63784703	     -7.63784703	     18.03280957	     -3.65127712	     29.50833735	     13.26379456	    -13.26379456	    -29.50833735	      3.65127712	    129.99909827	     74.51557503	   -129.99909827	     19.91990125	      0.00462518	      0.00000000	      0.00000000	     -0.00000000	     -0.00000000	      0.00000000
      3.17587940	    -18.07354445	      7.65510040	     -7.65510040	     18.07354445	     -3.65952511	     29.57499465	     13.29375655	    -13.29375655	    -29.57499465	      3.65952511	    129.99910512	     74.68390058	   -129.99910512	     19.92097391	      0.00459157	      0.00000000	      0.00000000	     -0.00000000	     -0.00000000	      0.00000000
      3.19597990	    -19.75445030	      8.36705279	     -8.36705279	     19.75445030	     -3.99987435	     32.32557752	     14.53012462	    -14.53012462	    -32.32557752	      3.99987435	    129.99534980	     81.62977698	   -129.99534980	    -85.90026156	      0.01162142	      0.00000000	      0.00000000	     -0.00000000	     -0.00000000	      0.00000000
      3.21608040	    -19.79203881	      8.38297351	     -8.38297351	     19.79203881	     -4.00748526	     32.38708620	     14.55777235	    -14.55777235	    -32.38708620	      4.00748526	    129.99552007	     81.78510104	   -129.99552007	    -85.90194602	      0.01126062	      0.00000000	      0.00000000	     -0.00000000	     -0.00000000	      0.00000000
      3.23618090	    -19.82834185	      8.39834976	     -8.39834976	     19.82834185	     -4.01483589	     32.44649138	     14.58447457	    -14.58447457	    -32.44649138	      4.01483589	    129.99567433	     81.93511326	   -129.99567433	    -85.90334384	      0.01092986	      0.00000000	      0.00000000	     -0.00000000	     -0.00000000	      0.00000000
      3.25628141	    -19.86327777	      8.41314697	     -8.41314697	     19.86327777	     -4.02190970	     32.50365945	     14.61017122	    -14.61017122	    -32.50365945	      4.02190970	    129.99581318	     82.07947623	   -129.99581318	    -85.90460329	      0.01062943	      0.00000000	      0.00000000	     -0.00000000	     -0.00000000	      0.00000000
      3.27638191	    -19.89684905	      8.42736618	     -8.42736618	     19.89684905	     -4.02870720	     32.55859446	     14.63486413	    -14.63486413	    -32.55859446	      4.02870720	    129.99593854	     82.21820021	   -129.99593854	    -85.90574156	      0.01035595	      0.00000000	      0.00000000	     -0.00000000	     -0.00000000	      0.00000000
      3.29648241	    -19.92905820	      8.44100845	     -8.44100845	     19.92905820	     -4.03522890	     32.61130053	     14.65855515	    -14.65855515	    -32.61130053	      4.03522890	    129.99605157	     82.35129558	   -129.99605157	    -85.90677875	      0.01010842	      0.00000000	      0.00000000	     -0.00000000	     -0.00000000	      0.00000000
      3.31658291	    -19.95991362	      8.45407735	     -8.45407735	     19.95991362	     -4.04147649	     32.66179139	     14.68125044	    -14.68125044	    -32.66179139	      4.04147649	    129.99615467	     82.47879703	   -129.99615467	    -85.90771377	      0.00988002	      0.00000000	      0.00000000	     -0.00000000	     -0.00000000	      0.00000000
